<svg xmlns="http://www.w3.org/2000/svg" width="24" height="24" viewBox="0 0 24 24">
  <g fill="none" fill-rule="evenodd">
    <rect width="24" height="24" fill="#000" rx="12"/>
    <path fill="#FFF" fill-rule="nonzero" d="M6,8 L6,16 C6,17.1045695 6.8954305,18 8,18 L12.3907314,18 L12.3907314,18 L12.3907314,13.3646501 L10.8284906,13.3646501 L10.8284906,11.4723718 L12.3907314,11.4723718 L12.3907314,9.883194 C12.3907314,8.72743072 13.3276545,7.79050754 14.4834178,7.79050754 L16.1166217,7.79050754 L16.1166217,9.492094 L14.9479824,9.492094 C14.5807386,9.492094 14.2830097,9.78982292 14.2830097,10.1570667 L14.2830097,11.4723981 L16.0872622,11.4723981 L15.837904,13.3646765 L14.2830097,13.3646765 L14.2830097,18 L16,18 C17.1045695,18 18,17.1045695 18,16 L18,8 C18,6.8954305 17.1045695,6 16,6 L8,6 C6.8954305,6 6,6.8954305 6,8 Z"/>
  </g>
</svg>
