<svg xmlns="http://www.w3.org/2000/svg" width="24" height="24" viewBox="0 0 24 24">
  <g fill="none" fill-rule="evenodd">
    <rect width="24" height="24" fill="#000" rx="12"/>
    <path fill="#FFF" d="M18.6666667,8.51649069 C18.1759251,8.71726756 17.6493665,8.85343214 17.0961194,8.91422242 C17.6610223,8.60188271 18.0934413,8.10646814 18.2983872,7.51795714 C17.7684953,7.80720377 17.1835923,8.01723397 16.5603669,8.13109001 C16.0613029,7.63951757 15.3514325,7.33333333 14.5640674,7.33333333 C13.0535202,7.33333333 11.828747,8.46418933 11.828747,9.85814128 C11.828747,10.0558404 11.8529083,10.248933 11.899575,10.4335769 C9.62667368,10.3281696 7.61122377,9.32271616 6.26231089,7.79489284 C6.02651529,8.16723829 5.89237564,8.60109819 5.89237564,9.06422674 C5.89237564,9.94045557 6.37562262,10.7135904 7.10882643,11.1659167 C6.66056862,11.1520769 6.23897751,11.0382209 5.86989194,10.8489704 L5.86989194,10.8805122 C5.86989194,12.1036801 6.81305253,13.1245222 8.06364281,13.3568609 C7.83451389,13.4137889 7.5929013,13.4453307 7.34294446,13.4453307 C7.16632108,13.4453307 6.9955147,13.4291776 6.82804166,13.3984002 C7.17629931,14.4023249 8.18612667,15.1323714 9.38257742,15.1523867 C8.44691141,15.8293675 7.26712734,16.2317058 5.98570913,16.2317058 C5.76492445,16.2317058 5.54745133,16.2193948 5.33333333,16.1970863 C6.54394533,16.914842 7.9811808,17.3333333 9.5258892,17.3333333 C14.5574443,17.3333333 17.3077756,13.4853412 17.3077756,10.1481724 L17.2986034,9.82122859 C17.8359899,9.46732942 18.3008926,9.02268739 18.6666667,8.51649069 L18.6666667,8.51649069 Z"/>
  </g>
</svg>
