<svg xmlns="http://www.w3.org/2000/svg" xmlns:xlink="http://www.w3.org/1999/xlink" width="97" height="66" viewBox="0 0 97 66">
  <defs>
    <polygon id="logo-a" points=".132 .045 12.767 .045 12.767 27.469 .132 27.469"/>
    <polygon id="logo-c" points=".076 .006 15.651 .006 15.651 32.325 .076 32.325"/>
  </defs>
  <g fill="none" fill-rule="evenodd">
    <path fill="#13151A" d="M30.695974 37.6865746C31.1062725 37.6865746 31.3267531 37.9216567 31.3262672 38.3592111 31.3179923 46.8810575 31.3102049 55.4029039 31.3019308 63.925237 31.3014441 64.3623047 31.0804767 64.5847322 30.6701782 64.5584497 29.6918864 64.4966373 28.7135946 64.4299577 27.7357895 64.3574375 27.3264644 64.3272614 27.1059837 64.0775779 27.1064704 63.6448907 27.1108508 58.6531689 27.1162047 53.6609604 27.1210718 48.6687519 27.0470915 48.6668051 26.9740847 48.6643715 26.9001044 48.6619379 25.8546463 53.6400318 24.8091882 58.5704278 23.7647035 63.442905 23.6697946 63.8303281 23.4488272 64.0084648 23.0706517 63.9739082 22.5561968 63.9276705 22.0417418 63.8789993 21.5272869 63.8298413 21.1491114 63.7933379 20.9291174 63.5757775 20.8346952 63.1752133 19.7994581 58.164023 18.7637342 53.2049109 17.7270369 48.3080981 17.6535433 48.3046911 17.5800498 48.3017708 17.5060695 48.2983638 17.5041226 53.1216831 17.5012024 57.9454891 17.4987688 62.7688084 17.4982821 63.1868943 17.2782881 63.3879065 16.868963 63.3411822 15.9042992 63.2316719 14.9406087 63.1172945 13.9769183 62.99805 13.5685667 62.9469452 13.3485727 62.6982352 13.3485727 62.2884234L13.3485727 38.3173538C13.3485727 37.907542 13.5695401 37.6865746 13.9793519 37.6865746L18.1426892 37.6865746C18.5213514 37.6865746 18.7418321 37.8802862 18.8362543 38.2686826 19.9994968 43.6390666 21.1617659 49.0863511 22.3230615 54.5973949 23.4936047 49.227011 24.665608 43.7845936 25.8385848 38.283284 25.933007 37.88564 26.1539744 37.6865746 26.5326366 37.6865746L30.695974 37.6865746zM45.6276759 41.661311C45.6276759 42.0039565 45.5011307 42.2439056 45.1224685 42.2429322 42.4937351 42.2385518 39.864515 42.2273574 37.235295 42.2098358 37.2338348 44.4774286 37.231888 46.7445347 37.2304278 49.0116408 39.2395764 49.0447372 41.2492116 49.0685861 43.2588469 49.0836742 43.5747232 49.085621 43.7635676 49.2924738 43.7635676 49.6691891 43.7630809 50.7988485 43.7625942 51.9289945 43.7625942 53.0586539 43.7621075 53.4353692 43.5727764 53.638815 43.2573868 53.6358947 41.2472648 53.6149661 39.2371428 53.5813829 37.2270208 53.5351453 37.2255607 55.8251268 37.2236139 58.1151084 37.2221537 60.40509 39.8538074 60.4917248 42.4859477 60.54721 45.1185748 60.5715456 45.4977237 60.5749526 45.6242689 60.7472487 45.6242689 61.1239641 45.6237822 62.266278 45.6237822 63.4081051 45.6232955 64.550419 45.6232955 64.8930645 45.4967502 65.0974836 45.1176013 65.0936446 41.2409375 65.051246 37.3652472 64.9271343 33.4929638 64.7222284 33.2087238 64.7071403 33.0193927 64.4944471 33.0198784 64.1566687 33.0276668 55.5131442 33.0349675 46.8701065 33.0432416 38.226582 33.0432416 37.8892903 33.2325727 37.6863313 33.5168127 37.6863313L45.1234419 37.6863313C45.5021041 37.6863313 45.6281626 37.8922106 45.6281626 38.2343694 45.6281626 39.37717 45.6276759 40.5189971 45.6276759 41.661311"/>
    <g transform="translate(47.211 37.642)">
      <mask id="logo-b" fill="#fff">
        <use xlink:href="#logo-a"/>
      </mask>
      <path fill="#13151A" d="M7.33567974,22.8827529 C8.15676346,22.8666914 8.59869827,22.4121021 8.59821195,21.4902689 C8.59577799,16.3111629 8.59285772,11.1315701 8.59042416,5.95246412 C8.58993744,5.03063095 8.14751592,4.55462628 7.32740563,4.5575332 C6.35982149,4.56144025 5.39223736,4.56436053 4.42513994,4.56630738 C4.42611336,10.6857416 4.4275735,16.8056626 4.42952035,22.9255836 C5.39807791,22.9153626 6.36712218,22.901248 7.33567974,22.8827529 M0.134283935,0.593274532 C0.134283935,0.250629044 0.291978734,0.0447497233 0.638517921,0.0447497233 L8.20835497,0.0447497233 C11.1734066,0.047183285 12.751328,1.78036593 12.7542482,4.96979191 C12.7586286,10.7553415 12.7630091,16.5408911 12.7673923,22.3264407 C12.769823,25.5139198 11.1923883,27.2913933 8.22246963,27.3741344 C5.69448572,27.4398406 3.16650182,27.4714769 0.638031208,27.4687417 C0.290518597,27.4680699 0.132337086,27.2957737 0.132337086,26.9185717 C0.132823798,18.1436349 0.133797223,9.36821134 0.134283935,0.593274532" mask="url(#logo-b)"/>
    </g>
    <path fill="#13151A" d="M65.2917792 37.6865746C65.6071688 37.6865746 65.7969866 37.8880735 65.7969866 38.2239051L65.8218099 64.0118718C65.8222957 64.34819 65.6329646 64.56137 65.317575 64.5813252 64.2234456 64.6484915 63.1293163 64.7098173 62.0347002 64.764329 61.6876743 64.7818507 61.5294928 64.5861923 61.5290061 64.2469538 61.5217054 55.5742266 61.5144047 46.9014994 61.5075896 38.2282855 61.507104 37.8895337 61.6647988 37.6865746 62.011338 37.6865746L65.2917792 37.6865746zM75.0110353 43.4011616C74.3418058 47.2140661 73.6725764 51.0551999 73.0033469 54.9206693 74.3481331 54.8418219 75.6924326 54.7561605 77.0367321 54.6646586 76.3621488 50.9413092 75.686592 47.18535 75.0110353 43.4011616M79.2137964 63.3714557C78.9305298 63.403092 78.7733217 63.2599985 78.7105358 62.9772187 78.4160748 61.4431014 78.1211272 59.9026568 77.8261795 58.3563717 75.9581775 58.5165001 74.0892021 58.6615403 72.2192533 58.7914925 71.9369602 60.4161383 71.654667 62.0446778 71.3723738 63.6775977 71.3100747 63.9798461 71.1523799 64.1589562 70.8686266 64.1823184 69.7443211 64.2743071 68.6195288 64.3594817 67.4942499 64.4378424 67.147224 64.462178 66.9895292 64.2718735 67.0834647 63.897105 68.8210277 55.2000422 70.5566439 46.6012952 72.294207 38.1480753 72.3565062 37.818571 72.546324 37.6861853 72.8300773 37.6866706L77.2138954 37.6866706C77.4976487 37.6866706 77.6874665 37.8161375 77.7502524 38.1388277 79.5009566 46.4163445 81.2472805 54.5142645 82.985817 62.3848898 83.0490896 62.7241283 82.9235178 62.9295209 82.5463158 62.9762452 81.4361249 63.1149583 80.3249606 63.2463706 79.2137964 63.3714557M21.379521.92008101C21.8857018.885037722 22.1587475 1.15808335 22.1592342 1.69930747 22.1704286 12.2429569 22.1821096 22.7866064 22.1937914 33.3297691 22.1942775 33.8709932 21.9222053 34.1625339 21.4160244 34.1625339L17.7948846 34.1625339C17.2887038 34.1620472 17.0156581 33.8744002 17.0151714 33.3395034 17.0083575 27.1689643 17.0015435 20.9979385 16.9952162 14.8273995 16.904201 14.8317799 16.8131858 14.8356736 16.7226573 14.8405407 15.4445507 21.0962544 14.1664441 27.2964829 12.8878508 33.4300319 12.7715265 33.918691 12.4989676 34.1625339 12.0317238 34.1625339L10.1242981 34.1625339C9.65656754 34.1620472 9.38400863 33.9206379 9.26671095 33.4378193 7.97643654 27.375817 6.68810897 21.3873084 5.40172825 15.4839744 5.31119975 15.4903017 5.22067126 15.4961422 5.12965605 15.5019828 5.13306304 21.457395 5.13598331 27.4128072 5.1393903 33.3682194 5.13987701 33.8846212 4.8673181 34.1625339 4.36113726 34.1625339L.778934431 34.1625339C.272753596 34.1620472.000194684937 33.8894883.000194684937 33.3837942L.000194684937 3.7907104C.000194684937 3.28501628.271293459 2.97790079.775527445 2.9151149 2.48242763 2.70290832 4.19030123 2.50238283 5.89914826 2.31353844 6.36541869 2.26194694 6.63749089 2.47171995 6.75430185 2.93847709 8.19643052 9.41467151 9.64050603 15.9955091 11.0870151 22.6659017 12.520383 15.8967065 13.9532641 9.04330999 15.3856585 2.12177378 15.501496 1.62046007 15.7735682 1.35130814 16.2408121 1.31237116 17.9530661 1.17025115 19.6658068 1.03932553 21.379521.92008101M33.3486536 7.6893736C32.5207559 12.6416717 31.6938316 17.5822887 30.8669073 22.5073308 32.52903 22.4820218 34.1911526 22.4601197 35.8532753 22.4421114 35.0190503 17.5107419 34.1838519 12.592027 33.3486536 7.6893736L33.3486536 7.6893736zM38.5477148 34.1626313C38.1972819 34.1626313 38.002597 33.949938 37.9242363 33.5668954 37.5596887 31.4969078 37.1951412 29.4283803 36.8301069 27.3617997 34.5191967 27.3754277 32.2082865 27.3929493 29.8973763 27.4148514 29.5488903 29.4702376 29.2004043 31.5231902 28.8514315 33.5727359 28.774531 33.9518848 28.579846 34.1626313 28.2294131 34.1626313L24.0631555 34.1626313C23.6348486 34.1621446 23.439677 33.9119744 23.5560012 33.4530047 25.6989957 22.7531206 27.8434503 11.9208507 29.9908251 1.00973342 30.0682124.583860125 30.3018343.404263271 30.6527539.388688476 32.4589434.307407515 34.2656196.238294362 36.0727825.182809155 36.4237021.171614772 36.6578108.334663406 36.7361715.757616431 38.9010679 11.5898863 41.0625575 22.5005169 43.2201533 33.4369432 43.2980272 33.9066206 43.142766 34.1626313 42.6755222 34.1626313L38.5477148 34.1626313zM53.6998 17.1035857C54.7131351 17.1112971 55.2592264 16.5204283 55.2597131 15.412671 55.2606865 12.7420804 55.2616599 10.0714898 55.2626337 7.40138591 55.2631201 6.29362862 54.7175156 5.68718504 53.7036937 5.67404381 52.4163396 5.65749559 51.1294722 5.64678791 49.8426047 5.64094737 49.842118 9.45531199 49.8416313 13.2696766 49.8411446 17.0835545 51.1275253 17.0869615 52.4134193 17.0932888 53.6998 17.1035857M60.5590371 16.6776364C60.5570902 19.5205232 59.5817187 21.3729504 57.7112832 22.250006 58.6053737 25.9738421 59.4989776 29.6908643 60.3920947 33.3981522 60.508419 33.90774 60.2747971 34.1622906 59.8464902 34.1622906L55.7970435 34.1622906C55.4076737 34.1622906 55.212502 33.9495973 55.1351147 33.5655812 54.2673066 29.9575827 53.3980384 26.3437435 52.5292569 22.7274708 51.6327327 22.7240638 50.7366953 22.7211436 49.8406579 22.7201701 49.8401712 26.3062667 49.8396845 29.8928499 49.8391978 33.4794332 49.8391978 33.9062799 49.6055758 34.1622906 49.216206 34.1622906L45.1667593 34.1622906C44.7773894 34.1622906 44.5437675 33.9062799 44.5437675 33.4794332 44.5413339 22.5522544 44.5393871 11.6250756 44.5374402.697410114 44.5374402.271050103 44.7710621.0126058496 45.1614054.0096855756 48.4257851-.0131899045 51.6901648.00530516452 54.953571.0661442072 58.6209485.138664346 60.569258 2.33909084 60.566341 6.32234464 60.5639042 9.77410857 60.5614706 13.2258725 60.5590371 16.6776364M74.6955584 34.1624366C74.2283145 34.1624366 73.9557556 33.9546104 73.8004944 33.5379847 72.1695213 29.4155311 70.5385482 25.251707 68.9066018 21.0596536 68.4252433 22.0432993 67.9438848 23.0293785 67.4625262 24.018378 67.459606 27.1192223 67.4566857 30.2195799 67.4537654 33.320911 67.4532787 33.8679756 67.1802331 34.1624366 66.674539 34.1624366L62.9361015 34.1624366C62.4299206 34.1624366 62.1578484 33.8660288 62.1578484 33.3145837 62.1661225 22.5781962 62.1739099 11.8418086 62.1821841 1.10542107 62.1826708.554462699 62.4557164.267302418 62.9628707.287257624 64.2108011.335442146 65.4582448.389953928 66.7052018.450792971 67.2123561.4756153 67.484915.784190925 67.4844283 1.3312556 67.4800479 5.68051708 67.4761542 10.0297786 67.4717738 14.3795268 69.4760552 10.0195576 71.4808233 5.7087464 73.4851048 1.4655882 73.6802764 1.06161696 73.953322.871799146 74.3811422.901488599 75.7444234.994937368 77.107218 1.09617354 78.4695258 1.20471039 79.0535807 1.25143477 79.2867159 1.68168848 79.0136702 2.23556713 76.8025361 6.8486267 74.5904285 11.5580553 72.3783209 16.3390306 74.7218408 22.0398923 77.064874 27.6769946 79.4079072 33.2172412 79.6799794 33.7521381 79.4458708 34.1624366 78.822879 34.1624366L74.6955584 34.1624366z"/>
    <g transform="translate(80.519 1.838)">
      <mask id="logo-d" fill="#fff">
        <use xlink:href="#logo-c"/>
      </mask>
      <path fill="#13151A" d="M5.92550026,21.7222152 C5.53613039,21.95097 5.37989573,22.2293694 5.37989573,22.6737378 C5.37843559,23.844281 5.37794888,25.0157976 5.37697545,26.1868275 C5.37648874,26.7115034 5.64856094,26.9991504 6.15474177,27.0069378 C7.5559866,27.0307867 8.95723144,27.0551223 10.3579896,27.080918 C10.3584763,26.5382338 10.3584763,25.9950628 10.358963,25.4523785 C10.3594497,24.9359767 10.6320086,24.664878 11.1377027,24.6789926 C12.3831996,24.7130625 13.6282098,24.7490792 14.8727332,24.7860693 C15.3784274,24.8016441 15.6509863,25.0824772 15.6509863,25.5881713 L15.6509863,31.5460171 C15.6509863,32.0517112 15.3784274,32.3242701 14.8722465,32.3247568 L0.854444375,32.3247568 C0.348263539,32.3247568 0.0757046282,32.0375965 0.0761906898,31.5046465 L0.0893325738,19.4127651 C0.0903059984,18.6345121 0.36286491,18.3152288 1.10315438,17.9346197 C4.19231761,16.3094872 7.28099413,14.7442203 10.365777,13.2568274 C10.3667504,11.2968368 10.3677238,9.33733291 10.3691839,7.37734232 C10.3696707,6.34551215 9.78756269,5.73371474 8.81559814,5.6456198 C8.19406648,5.58964789 7.57204811,5.53464939 6.95002974,5.48111103 C5.90067793,5.39009583 5.3944971,5.91477173 5.39352367,6.96509696 L5.3906034,10.1150992 C5.3906034,10.5185838 5.15698147,10.7453917 4.76809831,10.7200827 C3.41941841,10.6324745 2.07073852,10.5497334 0.721571905,10.4718594 C0.293265045,10.4470371 0.0990668206,10.1905396 0.0995535329,9.78072786 C0.10101367,8.33227193 0.102473807,6.883816 0.104420656,5.43584679 C0.108314355,1.57865148 2.05662386,-0.318553227 5.71086012,0.0508614397 C7.16223632,0.195415005 8.6126391,0.34824268 10.0620685,0.509831178 C13.673474,0.924510093 15.6500128,3.13418412 15.6509863,6.7811197 L15.6509863,15.9707354 C15.6509863,16.7105382 15.3399771,17.0011054 14.6016345,17.3486181 C11.7120233,18.7420755 8.81949184,20.2051328 5.92550026,21.7222152" mask="url(#logo-d)"/>
    </g>
  </g>
</svg>
