<svg xmlns="http://www.w3.org/2000/svg" width="76" height="66" viewBox="0 0 76 66">
  <g fill="none" fill-rule="evenodd">
    <rect width="76" height="66" fill="#000CBE"/>
    <path fill="#FFF" fill-rule="nonzero" d="M3.39037198 24C3.78389729 24 3.99579554 23.79 3.99579554 23.4L3.99579554 9.9 4.20769379 9.9 7.20454045 23.46C7.29535398 23.82 7.50725223 24 7.87050637 24L9.35379411 24C9.71704825 24 9.9289465 23.82 10.01976 23.46L13.0166067 9.9 13.2285049 9.9 13.2285049 23.4C13.2285049 23.79 13.4404032 24 13.8339285 24L16.6491481 24C17.0426734 24 17.2545717 23.79 17.2545717 23.4L17.2545717.6C17.2545717.21 17.0426734 0 16.6491481 0L12.6533526 0C12.2900984 0 12.0782002.18 11.9873866.54L8.62728583 15.48 5.26718503.54C5.1763715.18 4.96447325 0 4.60121911 0L.605423567 0C.211898248 0 0 .21 0 .6L0 23.4C0 23.79.211898248 24 .605423567 24L3.39037198 24zM22.5528694 24C22.8555812 24 23.0372082 23.82 23.0372082 23.52L23.0372082 15.96 25.1259195 15.96 27.1540885 23.58C27.2146308 23.85 27.3659867 24 27.6686985 24L30.8169011 24C31.149884 24 31.3315111 23.82 31.2406976 23.46L29.1519863 15.6C30.6050028 14.97 31.3617823 13.65 31.3617823 11.64L31.3617823 4.32C31.3617823 1.5 29.8482234 0 27.0027326 0L19.4046668 0C19.101955 0 18.920328.18 18.920328.48L18.920328 23.52C18.920328 23.82 19.101955 24 19.4046668 24L22.5528694 24zM26.0340549 12L23.0372082 12 23.0372082 3.96 26.0340549 3.96C26.8211055 3.96 27.244902 4.38 27.244902 5.16L27.244902 10.8C27.244902 11.58 26.8211055 12 26.0340549 12zM36.5389953 24C36.9325206 24 37.1444188 23.79 37.1444188 23.4L37.1444188 16.77 38.2644524 14.64 42.0786209 23.55C42.1997056 23.85 42.4116039 24 42.774858 24L45.9836029 24C46.4679418 24 46.6495688 23.7 46.4376706 23.31L40.9585873 11.19 46.1046876.72C46.3165859.3 46.1349588 0 45.6808911 0L42.5024174 0C42.1694344 0 41.9575362.15 41.8061803.45L37.1444188 9.9 37.1444188.6C37.1444188.21 36.9325206 0 36.5389953 0L33.6329622 0C33.2394368 0 33.0275386.21 33.0275386.6L33.0275386 23.4C33.0275386 23.79 33.2394368 24 33.6329622 24L36.5389953 24zM59.3945764 24C59.7881018 24 60 23.79 60 23.4L60 18.81C60 18.42 59.7881018 18.21 59.3945764 18.21L56.4885433 18.21C56.095018 18.21 55.8831197 18.42 55.8831197 18.81L55.8831197 20.04 52.6138325 20.04C52.2203072 20.04 52.0084089 19.83 52.0084089 19.44L52.0084089 16.83C52.0084089 16.5 52.1294936 16.29 52.4322054 16.11L59.1826782 12.51C59.7578306 12.21 60 11.97 60 11.4L60 4.32C60 1.5 58.4561699-1.77635684e-15 55.6409503-1.77635684e-15L52.2505783-1.77635684e-15C49.4050876-1.77635684e-15 47.8915287 1.5 47.8915287 4.32L47.8915287 7.5C47.8915287 7.8 48.0428846 7.98 48.3758675 7.98L51.5240701 7.98C51.8267818 7.98 52.0084089 7.8 52.0084089 7.5L52.0084089 5.16C52.0084089 4.38 52.4019342 3.96 53.219256 3.96L54.6722726 3.96C55.4290521 3.96 55.8831197 4.38 55.8831197 5.16L55.8831197 9.6 48.6785793 13.44C48.1034269 13.74 47.8915287 13.98 47.8915287 14.55L47.8915287 23.4C47.8915287 23.79 48.1034269 24 48.4969522 24L59.3945764 24zM7.5587449 50C10.3342215 50 11.8105389 48.5 11.8105389 45.68L11.8105389 38.75C11.8105389 38.18 11.5448018 37.85 11.0428539 37.64L4.01558323 35.3 4.01558323 31.16C4.01558323 30.38 4.45847843 29.96 5.19663712 29.96L6.61390178 29.96C7.41111316 29.96 7.79495567 30.38 7.79495567 31.16L7.79495567 33.5C7.79495567 33.8 7.97211376 33.98 8.26737723 33.98L11.3381173 33.98C11.6629072 33.98 11.8105389 33.8 11.8105389 33.5L11.8105389 30.32C11.8105389 27.5 10.3342215 26 7.5587449 26L4.251794 26C1.50584371 26 0 27.5 0 30.32L0 37.4C0 37.97.265737125 38.33.797211376 38.51L7.79495567 40.85 7.79495567 44.84C7.79495567 45.65 7.38158681 46.04 6.61390178 46.04L5.19663712 46.04C4.45847843 46.04 4.01558323 45.65 4.01558323 44.84L4.01558323 42.53C4.01558323 42.2 3.86795149 42.05 3.54316167 42.05L.472421556 42.05C.177158084 42.05 0 42.2 0 42.53L0 45.68C0 48.5 1.50584371 50 4.251794 50L7.5587449 50zM19.4291573 50C19.7834735 50 19.9901579 49.82 20.0787369 49.49L23.1790034 35.9 26.2497435 49.46C26.3383225 49.82 26.545007 50 26.8993231 50L29.7929052 50C30.1767477 50 30.3834321 49.82 30.4129585 49.43L32.9522243 26.63C32.9817507 26.24 32.7750662 26 32.3912237 26L29.5862207 26C29.2319046 26 28.9956938 26.21 28.9661674 26.57L27.7555872 40.61 27.6079555 40.61 24.7143734 26.54C24.6257944 26.18 24.41911 26 24.0647938 26L22.293213 26C21.9388968 26 21.7322124 26.18 21.6436333 26.54L18.720525 40.61 18.5728932 40.61 17.4213657 26.57C17.3918393 26.21 17.1556285 26 16.8013124 26L13.9963094 26C13.6124669 26 13.4057824 26.24 13.4353088 26.63L15.8564693 49.43C15.8859956 49.82 16.09268 50 16.4765226 50L19.4291573 50zM35.492311 50C35.7580481 50 35.9056798 49.85 35.9647325 49.58L36.7619439 45.2 42.0176337 45.2 42.8443715 49.58C42.9034241 49.85 43.0510559 50 43.316793 50L46.4465858 50C46.800902 50 46.9190074 49.82 46.8599547 49.49L41.958581 26.42C41.8995283 26.12 41.7223703 26 41.4566331 26L37.3524709 26C37.0867337 26 36.9095757 26.12 36.850523 26.42L31.9491493 49.49C31.8605703 49.82 32.008202 50 32.3329918 50L35.492311 50zM41.279475 41.72L37.5001026 41.72 39.3897888 31.25 41.279475 41.72zM55.748206 50C58.4941563 50 60 48.5 60 45.68L60 37.34C60 37.01 59.8228419 36.86 59.5275784 36.86L54.5671521 36.86C54.2423623 36.86 54.0947305 37.01 54.0947305 37.34L54.0947305 40.34C54.0947305 40.64 54.2423623 40.82 54.5671521 40.82L56.1025222 40.82 56.1025222 44.84C56.1025222 45.65 55.6891533 46.04 54.9214683 46.04L52.7955713 46.04C52.0278862 46.04 51.6145174 45.65 51.6145174 44.84L51.6145174 31.16C51.6145174 30.38 51.9983599 29.96 52.7955713 29.96L54.9214683 29.96C55.6891533 29.96 56.1025222 30.38 56.1025222 31.16L56.1025222 33.44C56.1025222 33.74 56.2501539 33.92 56.5749437 33.92L59.5275784 33.92C59.8228419 33.92 60 33.74 60 33.44L60 30.32C60 27.5 58.4941563 26 55.748206 26L51.8507282 26C49.0752515 26 47.5989342 27.5 47.5989342 30.32L47.5989342 45.68C47.5989342 48.5 49.0752515 50 51.8507282 50L55.748206 50z" transform="translate(8 8)"/>
  </g>
</svg>
