<svg xmlns="http://www.w3.org/2000/svg" xmlns:xlink="http://www.w3.org/1999/xlink" width="83" height="56" viewBox="0 0 83 56">
  <defs>
    <polygon id="logo-white-a" points=".112 .038 10.833 .038 10.833 23.307 .112 23.307"/>
    <polygon id="logo-white-c" points=".065 .005 13.279 .005 13.279 27.427 .065 27.427"/>
  </defs>
  <g fill="none" fill-rule="evenodd">
    <path fill="#FFF" d="M26.0450688 31.9764876C26.3932009 31.9764876 26.5802754 32.1759511 26.5798631 32.5472094 26.572842 39.777867 26.5662345 47.0085245 26.559214 54.239595 26.5588011 54.6104403 26.3713136 54.7991667 26.0231815 54.7768664 25.1931157 54.7244195 24.36305 54.6678429 23.5333971 54.6063106 23.186091 54.5807066 22.9990165 54.368854 22.9994295 54.0017254 23.0031462 49.7663251 23.0076888 45.5305119 23.0118185 41.2946986 22.9490474 41.2930467 22.8871021 41.2909819 22.824331 41.288917 21.9372756 45.5127542 21.0502203 49.6961205 20.1639908 53.8303437 20.0834621 54.1590662 19.8959746 54.3102125 19.5750984 54.2808918 19.1385912 54.2416598 18.702084 54.200363 18.2655767 54.1586533 17.9447006 54.1276807 17.758039 53.9430839 17.6779232 53.6032112 16.7995402 49.3512922 15.9207442 45.1435608 15.0411222 40.9886893 14.978764 40.9857985 14.9164059 40.9833207 14.8536347 40.9804299 14.8519829 45.0729433 14.849505 49.1658696 14.8474402 53.2583829 14.8470272 53.6131225 14.6603657 53.7836783 14.3130596 53.7440333 13.4945569 53.6511155 12.6768801 53.554068 11.8592034 53.4528909 11.5127232 53.4095292 11.3260617 53.1985026 11.3260617 52.8507835L11.3260617 32.5116942C11.3260617 32.1639751 11.5135492 31.9764876 11.8612683 31.9764876L15.3937969 31.9764876C15.7150861 31.9764876 15.9021606 32.1408489 15.9822764 32.4703974 16.96927 37.0270868 17.9554377 41.6490252 18.9407795 46.3250624 19.9339676 41.7683729 20.9283947 37.1505642 21.9236477 32.4827864 22.0037635 32.1453915 22.191251 31.9764876 22.5125401 31.9764876L26.0450688 31.9764876zM38.7143916 35.3489911C38.7143916 35.6397206 38.6070199 35.8433139 38.2857308 35.8424879 36.0552904 35.8387712 33.824437 35.829273 31.5935836 35.8144061 31.5923447 37.7384243 31.5906928 39.6620294 31.5894539 41.5856346 33.294186 41.6137164 34.9993311 41.6339518 36.7044762 41.6467539 36.9724924 41.6484057 37.132724 41.8239171 37.132724 42.1435544 37.1323111 43.1020533 37.1318981 44.0609651 37.1318981 45.0194639 37.1314851 45.3391012 36.9708405 45.5117218 36.7032372 45.509244 34.9976792 45.4914864 33.2921212 45.4629916 31.5865631 45.4237596 31.5853242 47.3667743 31.5836724 49.3097889 31.5824335 51.2528036 33.8153517 51.3263119 36.0486829 51.3733903 38.2824271 51.3940387 38.6041292 51.3969294 38.7115009 51.5431201 38.7115009 51.8627574 38.7110879 52.8319934 38.7110879 53.8008165 38.7106749 54.7700525 38.7106749 55.060782 38.6033032 55.2342285 38.2816011 55.2309712 34.9923106 55.1949966 31.7038461 55.0896897 28.4182723 54.9158302 28.1770989 54.9030282 28.0164544 54.7225611 28.0168665 54.4359613 28.0234748 47.1020618 28.0296694 39.7685752 28.0366898 32.4346756 28.0366898 32.1484888 28.1973344 31.9762811 28.4385077 31.9762811L38.2865567 31.9762811C38.6078459 31.9762811 38.7148046 32.1509666 38.7148046 32.4412831 38.7148046 33.4109321 38.7143916 34.3797551 38.7143916 35.3489911"/>
    <g transform="translate(40.058 31.938)">
      <mask id="logo-white-b" fill="#fff">
        <use xlink:href="#logo-white-a"/>
      </mask>
      <path fill="#FFF" d="M6.22421311,19.4156691 C6.92089021,19.4020412 7.29586519,19.016329 7.29545257,18.2341676 C7.29338739,13.8397746 7.29090958,9.44496861 7.28884474,5.05057562 C7.28843177,4.26841414 6.91304381,3.86453139 6.21719266,3.86699786 C5.39621218,3.87031294 4.5752317,3.87279075 3.75466419,3.87444262 C3.75549013,9.06668988 3.75672903,14.2593501 3.7583809,19.4520103 C4.58018732,19.443338 5.4024067,19.4313619 6.22421311,19.4156691 M0.113937884,0.503384451 C0.113937884,0.212654946 0.247739532,0.0379694622 0.541772781,0.0379694622 L6.96466482,0.0379694622 C9.48046617,0.0400343024 10.8193086,1.51061352 10.8217864,4.21679313 C10.8255031,9.12574431 10.8292198,14.0346955 10.8329389,18.9436467 C10.8350014,21.6481744 9.49657192,23.1563337 6.97664089,23.2265383 C4.83168486,23.282289 2.68672882,23.3091319 0.541359813,23.3068112 C0.246500627,23.3062411 0.112286012,23.1600504 0.112286012,22.8400002 C0.11269898,15.3945993 0.113524916,7.94878538 0.113937884,0.503384451" mask="url(#logo-white-b)"/>
    </g>
    <path fill="#FFF" d="M55.3990854 31.9764876C55.6666887 31.9764876 55.8277462 32.1474563 55.8277462 32.4324043L55.8488084 54.3131033C55.8492206 54.5984642 55.688576 54.7793442 55.4209727 54.7962759 54.4926205 54.8532655 53.5642684 54.9052995 52.6355032 54.9515519 52.341057 54.9664188 52.2068424 54.8004056 52.2064294 54.5125669 52.2002349 47.1538892 52.1940404 39.7952116 52.1882579 32.436121 52.1878459 32.1486952 52.3216475 31.9764876 52.6156808 31.9764876L55.3990854 31.9764876zM63.6457269 36.825228C63.0778959 40.0604197 62.5100648 43.3195635 61.9422337 46.5993558 63.0832644 46.5324549 64.2238822 46.4597726 65.3644999 46.3821346 64.7921262 43.222929 64.2189266 40.0360546 63.6457269 36.825228M67.211706 53.76972C66.9713586 53.7965629 66.8379699 53.6751503 66.784697 53.4352158 66.5348514 52.1335406 66.2845927 50.8264967 66.0343341 49.5144972 64.4493627 49.6503637 62.8635654 49.7734282 61.2769422 49.8836906 61.0374207 51.262178 60.7978993 52.6439691 60.5583778 54.0294769 60.5055179 54.28593 60.3717162 54.4379023 60.1309559 54.4577247 59.1769997 54.5357757 58.2226305 54.6080451 57.2678484 54.674533 56.9734022 54.6951814 56.8396005 54.5337108 56.9193034 54.2157255 58.3935993 46.8363994 59.8662434 39.5404929 61.3405393 32.3680639 61.3933992 32.0884845 61.5544567 31.9761572 61.7952171 31.976569L65.5148203 31.976569C65.7555807 31.976569 65.9166382 32.0864197 65.9699111 32.3602175 67.4553572 39.3835651 68.9370865 46.2545274 70.4122084 52.9326337 70.4658942 53.2204725 70.3593485 53.394745 70.0392982 53.4343899 69.0973181 53.5520858 68.1545121 53.6635872 67.211706 53.76972M18.1401996.780674797C18.5696864.750941097 18.8013615.982616172 18.8017744 1.44183664 18.8112727 10.3879634 18.8211839 19.3340903 18.8310957 28.2798041 18.8315081 28.7390246 18.600659 28.9863924 18.1711722 28.9863924L15.09869 28.9863924C14.6692032 28.9859795 14.4375281 28.7419153 14.4371152 28.2880635 14.4313336 23.0524546 14.425552 17.8164327 14.4201835 12.5808238 14.3429584 12.5845405 14.2657334 12.5878442 14.1889214 12.5919739 13.1044673 17.8998522 12.0200132 23.1606522 10.9351461 28.3648755 10.8364467 28.7794954 10.6051846 28.9863924 10.2087353 28.9863924L8.59031354 28.9863924C8.19345125 28.9859795 7.96218914 28.7811473 7.86266384 28.371483 6.76788555 23.227966 5.67475913 18.1468071 4.58328458 13.1379177 4.50647252 13.1432863 4.42966046 13.1482419 4.35243544 13.1531975 4.35532621 18.2062745 4.35780402 23.2593515 4.3606948 28.3124286 4.36110777 28.7505877 4.12984566 28.9863924 3.70035889 28.9863924L.660914063 28.9863924C.231427294 28.9859795.000165187219 28.7547174.000165187219 28.3256436L.000165187219 3.21636034C.000165187219 2.78728654.23018839 2.5267037.658023287 2.47343082 2.10630223 2.29337675 3.55540711 2.12323392 5.00533792 1.96300232 5.40096131 1.9192277 5.63181045 2.09721693 5.73092278 2.49325329 6.9545471 7.98820613 8.1798233 13.5719471 9.40716434 19.2316742 10.6233552 13.4881146 11.8391332 7.67311151 13.0544981 1.80029291 13.1527845 1.37493582 13.3836337 1.14656449 13.780083 1.11352704 15.2329046.992940373 16.6861391.881851968 18.1401996.780674797M28.2958273 6.52431699C27.5933686 10.7262669 26.8917359 14.9183055 26.1901032 19.0971292 27.6003891 19.0756549 29.0106749 19.0570713 30.4209608 19.0417915 29.7131336 14.8575992 29.0044804 10.6841441 28.2958273 6.52431699L28.2958273 6.52431699zM32.7071519 28.986475C32.4098149 28.986475 32.2446277 28.806008 32.1781399 28.4810021 31.8688268 26.724649 31.5595137 24.9695348 31.2497877 23.2160725 29.2890154 23.2276356 27.3282431 23.2425025 25.3674708 23.261086 25.0717857 25.0050501 24.7761006 26.7469493 24.4800025 28.4859577 24.4147535 28.8076599 24.2495663 28.986475 23.9522293 28.986475L20.4172229 28.986475C20.053811 28.9860621 19.8882108 28.7737965 19.9869101 28.3843676 21.8052085 19.3056781 23.6247457 10.1146612 25.4467607.856743511 25.5124226.49539647 25.7106473.34301126 26.0083972.329796283 27.5409217.260830619 29.0738591.202189156 30.6072094.155110799 30.9049594.145612533 31.103597.283956829 31.1700849.642826062 33.0069667 9.83384292 34.8409578 19.0913476 36.6716452 28.3707397 36.7377201 28.7692538 36.6059833 28.986475 36.2095339 28.986475L32.7071519 28.986475zM45.5634667 14.5121333C46.4232662 14.5186763 46.8866163 14.0173331 46.8870293 13.0774179 46.8878552 10.8114622 46.8886812 8.54550651 46.8895074 6.2799638 46.8899201 5.34004852 46.4269829 4.82549034 45.5667704 4.8143402 44.47447 4.80029929 43.3825824 4.79121399 42.2906949 4.78625837 42.290282 8.02268896 42.289869 11.2591195 42.289456 14.4951372 43.3809306 14.4980279 44.4719922 14.5033965 45.5634667 14.5121333M51.3834254 14.1507218C51.3817735 16.5628682 50.5541856 18.1346246 48.9671494 18.878793 49.7257717 22.0384115 50.483981 25.1922485 51.2417774 28.3378261 51.3404767 28.7702037 51.1422521 28.9861859 50.7788402 28.9861859L47.342946 28.9861859C47.0125716 28.9861859 46.8469714 28.8057189 46.7813095 28.4798871 46.0449874 25.418555 45.3074265 22.3522672 44.5702786 19.2839146 43.8095914 19.2810239 43.0493172 19.2785461 42.2890431 19.2777201 42.2886301 22.3204687 42.2882171 25.3636302 42.2878042 28.4067918 42.2878042 28.7689648 42.0895795 28.9861859 41.7592051 28.9861859L38.3233109 28.9861859C37.9929365 28.9861859 37.7947118 28.7689648 37.7947118 28.4067918 37.792647 19.1352461 37.7909951 9.86370051 37.7893432.591741915 37.7893432.229981906 37.9875679.0106958724 38.3187683.00821806414 41.0885449-.0111914341 43.8583216.00450135172 46.6272724.0561223576 49.7389866.117654597 51.3920977 1.98468314 51.3896227 5.36441364 51.3875551 8.29318303 51.3854902 11.2219524 51.3834254 14.1507218M63.3780495 28.9863098C62.9816002 28.9863098 62.7503381 28.8099725 62.6186013 28.4564718 61.2347453 24.9586325 59.8508894 21.4256908 58.4662076 17.868797 58.0577822 18.7034055 57.6493568 19.5400787 57.2409314 20.3792298 57.2384536 23.0102492 57.2359757 25.6408557 57.2334979 28.2722881 57.233085 28.7364642 57.0014099 28.9863098 56.5723361 28.9863098L53.4003285 28.9863098C52.9708418 28.9863098 52.7399926 28.7348123 52.7399926 28.2669195 52.7470131 19.1572573 52.7536206 10.0475952 52.760641.937933029 52.761054.470453199 52.9927291.226802052 53.4230418.243733742 54.4818918.284617578 55.5403289.330869999 56.5983531.382491005 57.0286658.403552376 57.2599279.665374118 57.2595149 1.1295502 57.2557982 4.81983267 57.2524945 8.51011514 57.2487778 12.2008106 58.9493802 8.50144282 60.6503956 4.84378482 62.350998 1.24352938 62.5165982.900765905 62.7482732.739708366 63.1112722.764899417 64.2679957.844189282 65.4243062.930086636 66.5802038 1.02217851 67.0757654 1.06182344 67.2735771 1.4268872 67.041902 1.89684483 65.1657882 5.81095599 63.2888484 9.80683481 61.4119086 13.8634199 63.4003498 18.7005147 65.388378 23.4835106 67.3764061 28.1843259 67.6072553 28.6381778 67.4086177 28.9863098 66.8800186 28.9863098L63.3780495 28.9863098z"/>
    <g transform="translate(68.32 1.56)">
      <mask id="logo-white-d" fill="#fff">
        <use xlink:href="#logo-white-c"/>
      </mask>
      <path fill="#FFF" d="M5.02769719,18.4309704 C4.69732275,18.6250654 4.56476001,18.8612831 4.56476001,19.238323 C4.56352111,20.2315111 4.56310814,21.2255252 4.5622822,22.2191263 C4.56186923,22.6643059 4.79271837,22.90837 5.22220514,22.9149775 C6.41114015,22.9352129 7.60007516,22.9558613 8.7885972,22.9777486 C8.78901017,22.5172893 8.78901017,22.0564169 8.78942313,21.5959575 C8.7898361,21.1577985 9.02109821,20.9277752 9.45017201,20.9397513 C10.5069572,20.9686591 11.5633295,20.9992187 12.6192888,21.0306043 C13.0483626,21.0438193 13.2796247,21.2821018 13.2796247,21.7111756 L13.2796247,26.7663175 C13.2796247,27.1953913 13.0483626,27.4266534 12.6188758,27.4270664 L0.724983106,27.4270664 C0.295496336,27.4270664 0.06423423,27.1834152 0.0646466459,26.7312152 L0.0757973353,16.4714371 C0.0766232714,15.8111011 0.307885378,15.5401941 0.936009778,15.2172531 C3.55711797,13.8383528 6.1778132,12.5102475 8.79520469,11.2482172 C8.79603062,9.58519486 8.79685656,7.9225855 8.79809546,6.25956318 C8.79850843,5.38407092 8.30459865,4.86497008 7.47990146,4.79022286 C6.95254126,4.74273154 6.42476809,4.69606615 5.89699493,4.65063966 C5.00663582,4.57341464 4.57714905,5.01859419 4.57632311,5.90977924 L4.57384531,8.58250844 C4.57384531,8.92485895 4.37562064,9.11730206 4.04565917,9.09582773 C2.90132471,9.02149348 1.75699026,8.95128891 0.612242829,8.88521402 C0.248830947,8.86415265 0.0840566963,8.64651849 0.0844696643,8.29879939 C0.0857085684,7.06980649 0.0869474726,5.84081358 0.0885993448,4.61223364 C0.0919030892,1.33946186 1.74501418,-0.270287587 4.84557828,0.0431551609 C6.077049,0.165806671 7.30769378,0.295478638 8.53751262,0.43258403 C11.6017355,0.784432806 13.2787988,2.65930774 13.2796247,5.75367732 L13.2796247,13.550927 C13.2796247,14.1786385 13.0157381,14.4251804 12.3892656,14.7200396 C9.9374743,15.9023671 7.4832052,17.143749 5.02769719,18.4309704" mask="url(#logo-white-d)"/>
    </g>
  </g>
</svg>
